<svg width="290" height="128" viewBox="0 0 290 128" version="1.1" xmlns="http://www.w3.org/2000/svg" xmlns:xlink="http://www.w3.org/1999/xlink">
<title>logo</title>
<desc>Created using Figma</desc>
<g id="Canvas" transform="matrix(2 0 0 2 -24898 -1966)">
<g id="logo">
<g id="Mask Group" filter="url(#filter0_d)">
<mask id="mask0_alpha" mask-type="alpha">
<g id="Rectangle 3">
<use xlink:href="#path0_fill" transform="translate(12461 993)" fill="#16A060"/>
</g>
</mask>
<g id="Rectangle 3" mask="url(#mask0_alpha)">
<use xlink:href="#path1_fill" transform="translate(12461 993)" fill="#16A060"/>
</g>
<g id="Group 5" mask="url(#mask0_alpha)">
<g id="leaf">
<g id="Outline Icons">
<g id="Group">
<g id="Subtract">
<use xlink:href="#path2_fill" transform="matrix(0.980631 0.195865 -0.195865 0.980631 12463.1 993.15)" fill="#5DF5AE"/>
</g>
</g>
</g>
</g>
</g>
</g>
<g id="Leaflike">
<use xlink:href="#path3_fill" transform="translate(12509 998)" fill="#16A060"/>
</g>
</g>
</g>
<defs>
<filter id="filter0_d" filterUnits="userSpaceOnUse" x="12449" y="983" width="64" height="64" color-interpolation-filters="sRGB">
<feFlood flood-opacity="0" result="BackgroundImageFix"/>
<feColorMatrix in="SourceAlpha" type="matrix" values="0 0 0 0 0 0 0 0 0 0 0 0 0 0 0 0 0 0 255 0"/>
<feOffset dx="0" dy="2"/>
<feGaussianBlur stdDeviation="6"/>
<feColorMatrix type="matrix" values="0 0 0 0 0 0 0 0 0 0 0 0 0 0 0 0 0 0 0.12 0"/>
<feBlend mode="normal" in2="BackgroundImageFix" result="effect1_dropShadow"/>
<feBlend mode="normal" in="SourceGraphic" in2="effect1_dropShadow" result="shape"/>
</filter>
<path id="path0_fill" d="M 0 8C 0 3.58172 3.58172 0 8 0L 32 0C 36.4183 0 40 3.58172 40 8L 40 32C 40 36.4183 36.4183 40 32 40L 8 40C 3.58172 40 0 36.4183 0 32L 0 8Z"/>
<path id="path1_fill" d="M 0 4C 0 1.79086 1.79086 0 4 0L 36 0C 38.2091 0 40 1.79086 40 4L 40 36C 40 38.2091 38.2091 40 36 40L 4 40C 1.79086 40 0 38.2091 0 36L 0 4Z"/>
<path id="path2_fill" fill-rule="evenodd" d="M 43.8893 1.18264L 43.8907 1.16972C 43.9258 0.851703 43.8148 0.535045 43.5883 0.308838C 43.3619 0.0826912 43.0459 -0.0287706 42.7263 0.00637508L 42.7146 0.00771273L 42.6805 0.0115942L 42.553 0.0264163L 42.0633 0.0875051C 41.6371 0.142565 41.0177 0.227142 40.2387 0.345577C 38.6806 0.582386 36.4806 0.955333 33.9057 1.50068C 28.7655 2.58941 22.0882 4.37395 16.0343 7.15556C 10.0114 9.92283 4.43046 13.7558 1.71621 19.0381C -1.01406 24.3498 -0.723166 30.8669 4.31146 38.7028L 10.7609 32.2524C 10.7566 32.2162 10.7553 32.1794 10.7548 32.1423L 10.7545 22.1143C 10.7548 21.562 11.2031 21.1141 11.7548 21.1143C 12.3075 21.1142 12.7554 21.5619 12.7552 22.1141L 12.7545 30.2579L 18.7856 24.2258C 18.7815 24.1905 18.7803 24.1547 18.7801 24.1184L 18.7792 17.0989C 18.7794 16.5466 19.2277 16.0988 19.7795 16.0989C 20.3321 16.0988 20.7801 16.5464 20.7798 17.0988L 20.7794 22.232L 27.301 15.7095L 27.3012 13.088C 27.3009 12.8119 27.525 12.588 27.8009 12.5881C 28.0768 12.5881 28.3007 12.812 28.3011 13.088L 28.3012 15.5964L 30.8097 15.5964C 31.0856 15.5965 31.3095 15.8203 31.309 16.0966C 31.3093 16.3726 31.0852 16.5965 30.8093 16.5965L 28.1813 16.5965L 21.6605 23.1186L 26.7991 23.1185C 27.3518 23.1184 27.7997 23.566 27.7995 24.1184C 27.7993 24.6708 27.3519 25.1184 26.7992 25.1185L 19.7795 25.1185C 19.7416 25.1185 19.7034 25.1164 19.6667 25.1123L 13.6382 31.1423L 21.7833 31.1422C 22.335 31.1424 22.7829 31.59 22.7827 32.1423C 22.7834 32.6945 22.3351 33.1423 21.7834 33.1422L 11.7552 33.1422C 11.7174 33.1423 11.6811 33.1401 11.6444 33.1362L 5.19581 39.5855C 13.0291 44.6159 19.5461 44.906 24.8567 42.1771C 30.1393 39.4627 33.973 33.8819 36.7406 27.8599C 39.522 21.8068 41.3076 15.1307 42.3961 9.99068C 42.9415 7.41591 43.3147 5.21615 43.5513 3.65832C 43.6705 2.87903 43.755 2.25998 43.8094 1.83434L 43.8709 1.3446L 43.8861 1.21622L 43.8893 1.18264Z"/>
<path id="path3_fill" d="M 11.8409 22.584C 12.0489 22.584 12.2169 22.648 12.3449 22.776C 12.4889 22.904 12.5609 23.072 12.5609 23.28C 12.5609 23.488 12.4889 23.664 12.3449 23.808C 12.2169 23.936 12.0489 24 11.8409 24L 3.27287 24C 3.06488 24 2.88888 23.936 2.74487 23.808C 2.61687 23.664 2.55287 23.488 2.55287 23.28L 2.55287 7.92C 2.55287 7.712 2.62487 7.544 2.76888 7.416C 2.91288 7.272 3.09688 7.2 3.32088 7.2C 3.52887 7.2 3.70487 7.272 3.84888 7.416C 3.99288 7.544 4.06488 7.712 4.06488 7.92L 4.06488 22.584L 11.8409 22.584ZM 25.3343 17.16C 25.3343 17.352 25.2623 17.52 25.1183 17.664C 24.9743 17.792 24.8063 17.856 24.6143 17.856L 15.5423 17.856C 15.5423 18.816 15.7343 19.68 16.1183 20.448C 16.5183 21.2 17.0783 21.8 17.7983 22.248C 18.5343 22.68 19.3983 22.896 20.3903 22.896C 21.1583 22.896 21.8463 22.736 22.4543 22.416C 23.0623 22.096 23.5503 21.688 23.9183 21.192C 24.0943 21.048 24.2623 20.976 24.4223 20.976C 24.5823 20.976 24.7263 21.04 24.8543 21.168C 24.9823 21.296 25.0463 21.44 25.0463 21.6C 25.0463 21.776 24.9663 21.944 24.8063 22.104C 24.2943 22.728 23.6463 23.24 22.8623 23.64C 22.0943 24.04 21.2783 24.24 20.4143 24.24C 19.1823 24.24 18.0943 23.976 17.1503 23.448C 16.2063 22.92 15.4703 22.184 14.9423 21.24C 14.4143 20.28 14.1503 19.176 14.1503 17.928C 14.1503 16.616 14.4063 15.472 14.9183 14.496C 15.4463 13.504 16.1423 12.752 17.0063 12.24C 17.8703 11.712 18.7903 11.448 19.7663 11.448C 20.7263 11.448 21.6223 11.672 22.4543 12.12C 23.3023 12.568 23.9903 13.224 24.5183 14.088C 25.0463 14.952 25.3183 15.976 25.3343 17.16ZM 19.7663 12.84C 18.8383 12.84 17.9743 13.16 17.1743 13.8C 16.3903 14.44 15.8863 15.36 15.6623 16.56L 23.8463 16.56L 23.8463 16.368C 23.7663 15.648 23.5263 15.024 23.1263 14.496C 22.7263 13.952 22.2223 13.544 21.6143 13.272C 21.0223 12.984 20.4063 12.84 19.7663 12.84ZM 38.356 11.736C 38.564 11.736 38.732 11.808 38.86 11.952C 39.004 12.096 39.076 12.272 39.076 12.48L 39.076 23.28C 39.076 23.488 39.004 23.664 38.86 23.808C 38.732 23.936 38.564 24 38.356 24C 38.148 24 37.972 23.936 37.828 23.808C 37.7 23.664 37.636 23.488 37.636 23.28L 37.636 21.672C 37.236 22.392 36.636 23 35.836 23.496C 35.036 23.992 34.164 24.24 33.22 24.24C 32.148 24.24 31.18 23.96 30.316 23.4C 29.468 22.84 28.796 22.072 28.3 21.096C 27.82 20.12 27.58 19.024 27.58 17.808C 27.58 16.592 27.828 15.504 28.324 14.544C 28.82 13.568 29.492 12.808 30.34 12.264C 31.204 11.72 32.156 11.448 33.196 11.448C 34.156 11.448 35.036 11.68 35.836 12.144C 36.636 12.608 37.236 13.216 37.636 13.968L 37.636 12.48C 37.636 12.272 37.7 12.096 37.828 11.952C 37.972 11.808 38.148 11.736 38.356 11.736ZM 33.364 22.896C 34.196 22.896 34.94 22.68 35.596 22.248C 36.268 21.8 36.788 21.192 37.156 20.424C 37.54 19.64 37.732 18.768 37.732 17.808C 37.732 16.88 37.54 16.032 37.156 15.264C 36.788 14.496 36.268 13.896 35.596 13.464C 34.94 13.016 34.196 12.792 33.364 12.792C 32.532 12.792 31.78 13.008 31.108 13.44C 30.452 13.872 29.932 14.472 29.548 15.24C 29.18 15.992 28.996 16.848 28.996 17.808C 28.996 18.768 29.18 19.64 29.548 20.424C 29.916 21.192 30.428 21.8 31.084 22.248C 31.756 22.68 32.516 22.896 33.364 22.896ZM 47.1055 7.608C 46.5935 7.608 46.1935 7.776 45.9055 8.112C 45.6335 8.448 45.4975 8.912 45.4975 9.504L 45.4975 11.976L 48.1855 11.976C 48.3615 11.976 48.5135 12.04 48.6415 12.168C 48.7855 12.296 48.8575 12.456 48.8575 12.648C 48.8575 12.84 48.7855 13 48.6415 13.128C 48.5135 13.256 48.3615 13.32 48.1855 13.32L 45.4975 13.32L 45.4975 23.28C 45.4975 23.488 45.4255 23.664 45.2815 23.808C 45.1535 23.936 44.9855 24 44.7775 24C 44.5695 24 44.3935 23.936 44.2495 23.808C 44.1215 23.664 44.0575 23.488 44.0575 23.28L 44.0575 13.32L 42.3055 13.32C 42.1135 13.32 41.9535 13.256 41.8255 13.128C 41.6975 12.984 41.6335 12.824 41.6335 12.648C 41.6335 12.44 41.6975 12.28 41.8255 12.168C 41.9535 12.04 42.1135 11.976 42.3055 11.976L 44.0575 11.976L 44.0575 9.504C 44.0575 8.496 44.3455 7.72 44.9215 7.176C 45.5135 6.616 46.2975 6.336 47.2735 6.336C 47.7215 6.336 48.1375 6.408 48.5215 6.552C 48.9055 6.68 49.0975 6.896 49.0975 7.2C 49.0975 7.392 49.0335 7.552 48.9055 7.68C 48.7775 7.808 48.6335 7.872 48.4735 7.872C 48.3295 7.872 48.1535 7.832 47.9455 7.752C 47.5935 7.656 47.3135 7.608 47.1055 7.608ZM 52.8895 23.28C 52.8895 23.488 52.8175 23.664 52.6735 23.808C 52.5455 23.936 52.3775 24 52.1695 24C 51.9615 24 51.7855 23.936 51.6415 23.808C 51.5135 23.664 51.4495 23.488 51.4495 23.28L 51.4495 6.96C 51.4495 6.752 51.5135 6.584 51.6415 6.456C 51.7855 6.312 51.9615 6.24 52.1695 6.24C 52.3775 6.24 52.5455 6.312 52.6735 6.456C 52.8175 6.584 52.8895 6.752 52.8895 6.96L 52.8895 23.28ZM 58.2177 23.28C 58.2177 23.488 58.1457 23.664 58.0017 23.808C 57.8737 23.936 57.7057 24 57.4977 24C 57.2897 24 57.1137 23.936 56.9697 23.808C 56.8417 23.664 56.7777 23.488 56.7777 23.28L 56.7777 12.24C 56.7777 12.032 56.8417 11.864 56.9697 11.736C 57.1137 11.592 57.2897 11.52 57.4977 11.52C 57.7057 11.52 57.8737 11.592 58.0017 11.736C 58.1457 11.864 58.2177 12.032 58.2177 12.24L 58.2177 23.28ZM 57.4977 9.912C 57.1777 9.912 56.9297 9.84 56.7537 9.696C 56.5777 9.536 56.4897 9.312 56.4897 9.024L 56.4897 8.784C 56.4897 8.496 56.5777 8.28 56.7537 8.136C 56.9457 7.976 57.2017 7.896 57.5217 7.896C 58.1617 7.896 58.4817 8.192 58.4817 8.784L 58.4817 9.024C 58.4817 9.312 58.3937 9.536 58.2177 9.696C 58.0577 9.84 57.8177 9.912 57.4977 9.912ZM 71.6785 22.728C 71.8225 22.888 71.8945 23.072 71.8945 23.28C 71.8945 23.488 71.8065 23.664 71.6305 23.808C 71.4705 23.936 71.3185 24 71.1745 24C 70.9665 24 70.7905 23.912 70.6465 23.736L 65.3425 18.12L 63.5425 19.656L 63.5425 23.28C 63.5425 23.488 63.4705 23.664 63.3265 23.808C 63.1985 23.936 63.0305 24 62.8225 24C 62.6145 24 62.4385 23.936 62.2945 23.808C 62.1665 23.664 62.1025 23.488 62.1025 23.28L 62.1025 6.96C 62.1025 6.752 62.1665 6.584 62.2945 6.456C 62.4385 6.312 62.6145 6.24 62.8225 6.24C 63.0305 6.24 63.1985 6.312 63.3265 6.456C 63.4705 6.584 63.5425 6.752 63.5425 6.96L 63.5425 17.904L 70.4785 11.928C 70.6225 11.768 70.7905 11.688 70.9825 11.688C 71.1585 11.688 71.3185 11.768 71.4625 11.928C 71.6065 12.072 71.6785 12.232 71.6785 12.408C 71.6785 12.6 71.5905 12.784 71.4145 12.96L 66.4705 17.16L 71.6785 22.728ZM 84.6312 17.16C 84.6312 17.352 84.5592 17.52 84.4152 17.664C 84.2712 17.792 84.1032 17.856 83.9112 17.856L 74.8392 17.856C 74.8392 18.816 75.0312 19.68 75.4152 20.448C 75.8152 21.2 76.3752 21.8 77.0952 22.248C 77.8312 22.68 78.6952 22.896 79.6872 22.896C 80.4552 22.896 81.1432 22.736 81.7512 22.416C 82.3592 22.096 82.8472 21.688 83.2152 21.192C 83.3912 21.048 83.5592 20.976 83.7192 20.976C 83.8792 20.976 84.0232 21.04 84.1512 21.168C 84.2792 21.296 84.3432 21.44 84.3432 21.6C 84.3432 21.776 84.2632 21.944 84.1032 22.104C 83.5912 22.728 82.9432 23.24 82.1592 23.64C 81.3912 24.04 80.5752 24.24 79.7112 24.24C 78.4792 24.24 77.3912 23.976 76.4472 23.448C 75.5032 22.92 74.7672 22.184 74.2392 21.24C 73.7112 20.28 73.4472 19.176 73.4472 17.928C 73.4472 16.616 73.7032 15.472 74.2152 14.496C 74.7432 13.504 75.4392 12.752 76.3032 12.24C 77.1672 11.712 78.0872 11.448 79.0632 11.448C 80.0232 11.448 80.9192 11.672 81.7512 12.12C 82.5992 12.568 83.2872 13.224 83.8152 14.088C 84.3432 14.952 84.6152 15.976 84.6312 17.16ZM 79.0632 12.84C 78.1352 12.84 77.2712 13.16 76.4712 13.8C 75.6872 14.44 75.1832 15.36 74.9592 16.56L 83.1432 16.56L 83.1432 16.368C 83.0632 15.648 82.8232 15.024 82.4232 14.496C 82.0232 13.952 81.5192 13.544 80.9112 13.272C 80.3192 12.984 79.7032 12.84 79.0632 12.84Z"/>
</defs>
</svg>
